<svg xmlns="http://www.w3.org/2000/svg" xmlns:xlink="http://www.w3.org/1999/xlink" width="500" zoomAndPan="magnify" viewBox="0 0 375 374.999991" height="500" preserveAspectRatio="xMidYMid meet" version="1.0"><defs><clipPath id="65910a69da"><path d="M 187.097656 309 L 191.808594 309 L 191.808594 313.519531 L 187.097656 313.519531 Z M 187.097656 309 " clip-rule="nonzero"/></clipPath><clipPath id="0f6323e7b7"><path d="M 189.523438 309 C 191.699219 310.5 191.851562 311.476562 191.550781 312.074219 C 191.324219 312.675781 190.574219 313.351562 189.976562 313.425781 C 189.375 313.574219 188.398438 313.273438 187.949219 312.898438 C 187.5 312.449219 187.199219 311.476562 187.273438 310.875 C 187.351562 310.273438 187.949219 309.449219 188.550781 309.226562 C 189.074219 308.925781 190.125 309 190.648438 309.300781 C 191.175781 309.601562 191.625 310.574219 191.773438 311.101562 C 191.773438 311.625 191.625 312.148438 191.324219 312.523438 C 191.023438 312.976562 190.125 313.5 189.523438 313.5 C 188.851562 313.5 187.949219 313.050781 187.574219 312.601562 C 187.273438 312.226562 187.125 311.550781 187.125 311.101562 C 187.199219 310.574219 187.5 309.976562 187.800781 309.601562 C 188.175781 309.300781 189.300781 309 189.300781 309 " clip-rule="nonzero"/></clipPath><clipPath id="47a057c6b6"><path d="M 0.0976562 0 L 4.808594 0 L 4.808594 4.519531 L 0.0976562 4.519531 Z M 0.0976562 0 " clip-rule="nonzero"/></clipPath><clipPath id="dc25622063"><path d="M 2.523438 0 C 4.699219 1.5 4.851562 2.476562 4.550781 3.074219 C 4.324219 3.675781 3.574219 4.351562 2.976562 4.425781 C 2.375 4.574219 1.398438 4.273438 0.949219 3.898438 C 0.5 3.449219 0.199219 2.476562 0.273438 1.875 C 0.351562 1.273438 0.949219 0.449219 1.550781 0.226562 C 2.074219 -0.0742188 3.125 0 3.648438 0.300781 C 4.175781 0.601562 4.625 1.574219 4.773438 2.101562 C 4.773438 2.625 4.625 3.148438 4.324219 3.523438 C 4.023438 3.976562 3.125 4.5 2.523438 4.5 C 1.851562 4.5 0.949219 4.050781 0.574219 3.601562 C 0.273438 3.226562 0.125 2.550781 0.125 2.101562 C 0.199219 1.574219 0.5 0.976562 0.800781 0.601562 C 1.175781 0.300781 2.300781 0 2.300781 0 " clip-rule="nonzero"/></clipPath><clipPath id="2345dbec29"><rect x="0" width="5" y="0" height="5"/></clipPath></defs><path fill="#000000" d="M 187.023438 23.4375 C 170.988281 23.4375 157.433594 34.472656 153.292969 49.257812 C 149.230469 47.832031 144.933594 46.875 140.148438 46.875 C 120.871094 46.875 104.992188 62.753906 104.992188 82.03125 C 104.992188 86.210938 105.753906 90.15625 107.101562 93.75 L 69.835938 93.75 C 51.867188 93.75 34.679688 105.800781 34.679688 124.058594 L 34.679688 297.808594 C 34.679688 316.074219 51.90625 328.144531 69.835938 328.164062 L 304.210938 328.164062 C 322.183594 328.164062 339.367188 316.113281 339.367188 297.871094 L 339.367188 124.058594 C 339.367188 105.800781 322.160156 93.75 304.210938 93.75 L 266.945312 93.75 C 268.292969 90.15625 269.050781 86.210938 269.050781 82.03125 C 269.050781 62.753906 253.175781 46.875 233.898438 46.875 C 229.113281 46.875 224.816406 47.832031 220.753906 49.257812 C 216.613281 34.472656 203.058594 23.4375 187.023438 23.4375 Z M 187.023438 46.875 C 193.625 46.875 198.742188 51.988281 198.742188 58.59375 C 198.742188 58.28125 197.941406 62.65625 195.988281 67.34375 C 195.910156 67.558594 195.71875 67.808594 195.636719 68.023438 C 191.632812 72.808594 188.875 76.894531 187.023438 80.019531 C 185.167969 76.894531 182.410156 72.808594 178.410156 68.023438 C 178.332031 67.808594 178.136719 67.558594 178.058594 67.34375 C 176.105469 62.65625 175.300781 58.28125 175.300781 58.59375 C 175.300781 51.988281 180.421875 46.875 187.023438 46.875 Z M 140.148438 70.308594 C 146.375 70.308594 153.21875 75.058594 158.820312 81.210938 C 160.773438 85.429688 162.746094 89.726562 164.910156 93.75 L 147.921875 93.75 C 147.921875 93.75 141.847656 93.574219 136.4375 91.546875 C 133.742188 90.546875 131.550781 89.160156 130.34375 87.796875 C 129.132812 86.445312 128.433594 85.296875 128.433594 82.03125 C 128.433594 75.429688 133.546875 70.308594 140.148438 70.308594 Z M 233.898438 70.308594 C 240.5 70.308594 245.617188 75.429688 245.617188 82.03125 C 245.617188 85.296875 244.910156 86.445312 243.703125 87.796875 C 242.492188 89.160156 240.300781 90.546875 237.605469 91.546875 C 232.195312 93.574219 226.125 93.75 226.125 93.75 L 209.132812 93.75 C 211.300781 89.726562 213.273438 85.429688 215.226562 81.210938 C 220.832031 75.058594 227.667969 70.308594 233.898438 70.308594 Z M 69.835938 117.191406 L 175.300781 117.191406 L 175.300781 164.058594 L 58.117188 164.058594 L 58.117188 124.058594 C 58.117188 121.816406 61.925781 117.191406 69.835938 117.191406 Z M 198.742188 117.191406 L 304.210938 117.191406 C 312.140625 117.191406 315.933594 121.773438 315.933594 124.058594 L 315.933594 164.058594 L 198.742188 164.058594 Z M 58.117188 187.5 L 315.933594 187.5 L 315.933594 297.871094 C 315.933594 300.101562 312.121094 304.726562 304.210938 304.726562 L 198.742188 304.726562 L 198.742188 210.941406 L 175.300781 210.941406 L 175.300781 304.726562 L 69.835938 304.726562 C 61.90625 304.726562 58.117188 300.101562 58.117188 297.808594 Z M 58.117188 187.5 " fill-opacity="1" fill-rule="nonzero"/><g clip-path="url(#65910a69da)"><g clip-path="url(#0f6323e7b7)"><g transform="matrix(1, 0, 0, 1, 187, 309)"><g clip-path="url(#2345dbec29)"><g clip-path="url(#47a057c6b6)"><g clip-path="url(#dc25622063)"><rect x="-269.5" width="540" fill="#1e1e1e" height="539.999987" y="-391.499998" fill-opacity="1"/></g></g></g></g></g></g></svg>